<svg height="512" viewBox="0 0 512 512" width="512" xmlns="http://www.w3.org/2000/svg"><g fill="none" transform="translate(6 149)"><rect fill="#ced4da" height="204.379562" rx="12.16545" width="362.530414" y="9.73236"/><rect fill="#e9ecef" height="206.812652" rx="12.16545" width="364.963504" x="7.29927"/><path d="m360.097324 0c6.718792 0 12.16545 5.44665754 12.16545 12.1654501v55.9610706h-364.96350393v-55.9610706c0-6.71879256 5.44665753-12.1654501 12.16545013-12.1654501z" fill="#e19c30"/><path d="m46.2287105 12.1654501 23.1400612 16.8122386-8.8387169 27.2027735h-28.6026887l-8.8387169-27.2027735z" fill="#1971c2"/><rect fill="#c17d23" height="12.16545" opacity=".4" rx="6.082725" width="253.041363" x="94.890511" y="14.59854"/><rect fill="#c17d23" height="17.03163" opacity=".4" rx="8.515815" width="194.647202" x="124.087591" y="36.49635"/><rect fill="#dee2e6" height="17.03163" rx="8.515815" width="194.647202" x="21.89781" y="81.508516"/><rect fill="#dee2e6" height="9.73236" rx="4.86618" width="97.323601" x="21.89781" y="108.272506"/><path d="m202.700182 121.299825c-5.200018-5.100018-11.700041-6.200022-18.100064-5.80002-4.900017.300001-10.400036 2.100007-13.900049 6.300022-.2.300001-.500001.600002-.700002.800003v-5.60002h-12.000042v54.00019h13.700048v-23.500083c0-3.700013.1-7.900027.600002-10.300036.600002-3.00001 2.000007-5.400019 4.000014-6.900024 1.800006-1.300005 3.900014-2.000007 6.400022-2.100008 3.700013-.1 6.600024 1.000004 8.50003 3.100011 2.80001 3.000011 3.600013 8.600031 3.600013 14.20005v25.50009h13.800049l-.001936-27.850789c-.026126-7.928766-.404962-16.449367-5.898085-21.849386zm49.599934-5.80002c-5.60002 0-10.300037 1.600005-13.900049 4.500016v-3.000016h-12.000042v78.000279h13.700048v-25.900091c3.500012 2.200008 7.800027 3.400012 12.900045 3.400012 14.900053 0 24.900088-12.300043 24.900088-28.5001 0-16.500058-10.100036-28.5001-25.60009-28.5001zm-1.500006 44.900158c-8.989056 0-12.318693-6.440029-12.398566-16.042954l-.001477-.357104c0-9.800034 3.400012-16.400058 11.900042-16.400058 9.100032 0 13.200046 7.400026 13.200046 16.400058 0 9.100032-3.900014 16.400058-12.700045 16.400058zm101.000122-43.400153h13.300047l-16.500058 54.00019h-11.30004l-10.900038-35.200124-11.800041 35.200124h-10.400037l-16.500058-54.10019 13.400047.1 9.800035 32.200113 9.900034-32.200113h11.30004l9.900035 32.200113z" fill="#495057"/><path d="m415.400153 99.3997482c-1.781257-.281251-4.26564-.3867201-5.722799-.3988051l-30.677329-.0011963v72.0002532h13.600047v-24.400086h16.80006c1.300004 0 4.100014-.1 6.000021-.400001 12.800045-2.000007 18.600065-11.30004 18.600065-23.400083 0-12.100042-5.70002-21.400075-18.600065-23.4000818zm-2.000007 34.0001198c-1.400005.400001-3.200012.500002-4.600017.500002h-16.200057v-22.200079h16.200057c1.400005 0 3.200012.100001 4.600017.5 5.500019 1.5 6.900024 6.700026 6.900024 10.600039l-.006126.446796c-.105373 3.840404-1.601427 8.70984-6.893898 10.153242zm71.800007-16.400058h13.600047l-30.500107 78.000274-12.600044-.1 8.800031-23.900084.1-.400001-21.800076-53.600189h14.100049l14.20005 36.700129z" fill="#212529"/></g></svg>